<svg width="511.95" height="157.53" viewBox="0 0 511.95 157.53" xmlns="http://www.w3.org/2000/svg" xmlns:xlink="http://www.w3.org/1999/xlink" overflow="hidden"><defs></defs><g><path d="M0.83 0.74 18.72 0.73 82.8 123.72 148.08 1.04 164.44 1.02 82.82 156.45Z" stroke="#EFEDED" stroke-miterlimit="10" fill="#FFFDFD"/><path d="M148.15 156.45 147.01 57.69C147.01 57.69 144.89 4.79 205.29 0.57 205.29 0.57 240.21 0.43 256.48 30.16 256.48 30.16 269.97 1.5 307.53 0.5 307.53 0.5 359.09-0.89 365.88 57.85L365.95 156.3 351.45 156.31 351.38 57.55C351.38 57.55 350.27 17.07 307.53 14.9 307.53 14.9 265.4 14.12 263.75 57.61L263.82 156.36 249.21 156.37 249.14 57.61C249.14 57.61 247.86 15.41 205.29 14.96 205.29 14.96 164.98 13.57 161.61 57.67L161.68 156.43 148.15 156.45Z" stroke="#EFEDED" stroke-miterlimit="10" fill="#FFFDFD"/><path d="M372.09 91.86 372.09 155.45 411.79 155.45 411.79 147.99 380.53 147.99 380.53 91.86Z" stroke="#EFEDED" stroke-miterlimit="10" fill="#FFFDFD"/><rect x="415.25" y="109.35" width="7.82" height="46.09" stroke="#EFEDED" stroke-miterlimit="10" fill="#FFFDFD"/><path d="M428.07 109.35 436.43 109.35 449.25 146.24 462.41 109.35 470.43 109.35 452.98 155.45 445.46 155.45Z" stroke="#EFEDED" stroke-miterlimit="10" fill="#FFFDFD"/><circle cx="419.16" cy="96.24" r="7.14" stroke="#EFEDED" stroke-miterlimit="10" fill="#1DA7FC"/><path d="M490.55 108.38C490.55 108.38 469.6 106.96 469.09 132.79 469.09 132.79 468.13 156.76 490.98 156.43 490.98 156.43 506.44 157.8 511.18 141.6L503.1 140.54C503.1 140.54 499.87 152 488.22 149.89 488.22 149.89 477.85 148.55 477.08 134.41L511.41 134.41C511.4 134.4 513.45 109.28 490.55 108.38ZM477.52 128C477.52 128 477.87 115 490.59 114.77 490.59 114.77 502.47 114.12 503.19 128L477.52 128Z" stroke="#EFEDED" stroke-miterlimit="10" fill="#FFFDFD"/></g></svg>