<svg width="106.84" height="6.8" viewBox="0 0 106.84 6.8" xmlns="http://www.w3.org/2000/svg" xmlns:xlink="http://www.w3.org/1999/xlink" xml:space="preserve" overflow="hidden"><defs></defs><g><path d="M2.85 3.22 3.63 3.22 3.63 3.84 2.72 3.84 2.36 5.52 1.7 5.52 2.06 3.85 1.36 3.85 0.99 5.52 0.33 5.52 0.69 3.85 0 3.85 0 3.22 0.82 3.22 1.02 2.29 0.24 2.29 0.24 1.67 1.14 1.67 1.5 0 2.16 0 1.81 1.67 2.51 1.67 2.87 0 3.53 0 3.17 1.67 3.87 1.67 3.87 2.29 3.05 2.29 2.85 3.22ZM1.68 2.29 1.48 3.22 2.18 3.22 2.38 2.29 1.68 2.29Z" fill="#ED1C24"/><path d="M6.68 1.71 6.68 5.51 6.15 5.51 6.15 1.71 4.64 1.71 4.64 1.28 8.18 1.28 8.18 1.71 6.68 1.71Z" fill="#808080"/><path d="M11.25 3.69 11.25 5.52 10.72 5.52 10.72 3.73C10.72 3.56 10.72 3.43 10.71 3.26 10.68 2.88 10.47 2.59 9.97 2.6 9.46 2.61 9.03 2.98 9.03 4.09L9.03 5.52 8.5 5.52 8.5 0.98 9.03 0.98 9.03 2.83 9.23 2.45C9.51 2.24 9.75 2.18 10.08 2.18 10.79 2.18 11.19 2.56 11.24 3.13 11.25 3.3 11.25 3.42 11.25 3.69Z" fill="#808080"/><path d="M14.8 4.05 12.44 4.05C12.49 4.91 12.89 5.2 13.37 5.2 13.79 5.2 14.14 4.94 14.21 4.47L14.76 4.47C14.63 5.26 14.01 5.6 13.34 5.6 12.49 5.6 11.86 5.05 11.86 3.9 11.86 2.85 12.52 2.18 13.41 2.18 14.31 2.18 14.8 2.85 14.8 3.8 14.81 3.85 14.81 3.93 14.8 4.05ZM12.45 3.65 14.28 3.65C14.23 2.98 13.94 2.59 13.41 2.59 12.89 2.58 12.51 2.95 12.45 3.65Z" fill="#808080"/><path d="M20.5 3.35C20.5 4.6 19.78 5.37 18.79 5.49 18.58 5.51 18.48 5.51 18.25 5.51L16.99 5.51 16.99 1.28 18.28 1.28C18.51 1.28 18.61 1.28 18.82 1.3 19.8 1.43 20.5 2.09 20.5 3.35ZM19.92 3.35C19.92 2.41 19.48 1.86 18.77 1.74 18.64 1.72 18.48 1.71 18.26 1.71L17.53 1.71 17.53 5.08 18.23 5.08C18.45 5.08 18.61 5.07 18.75 5.05 19.45 4.94 19.92 4.35 19.92 3.35Z" fill="#808080"/><path d="M23.84 4.05 21.48 4.05C21.53 4.91 21.93 5.2 22.41 5.2 22.83 5.2 23.18 4.94 23.25 4.47L23.8 4.47C23.67 5.26 23.05 5.6 22.38 5.6 21.53 5.6 20.9 5.05 20.9 3.9 20.9 2.85 21.56 2.18 22.45 2.18 23.35 2.18 23.84 2.85 23.84 3.8 23.85 3.85 23.85 3.93 23.84 4.05ZM21.49 3.65 23.32 3.65C23.27 2.98 22.98 2.59 22.45 2.59 21.93 2.58 21.55 2.95 21.49 3.65Z" fill="#808080"/><path d="M26.7 3.19 26.15 3.19C26.08 2.81 25.84 2.58 25.46 2.58 25.09 2.58 24.92 2.78 24.92 3.06 24.92 3.39 25.19 3.51 25.63 3.63 26.38 3.83 26.73 4.12 26.73 4.67 26.73 5.28 26.21 5.59 25.52 5.59 24.85 5.59 24.34 5.28 24.24 4.55L24.79 4.55C24.88 5.02 25.18 5.19 25.55 5.19 25.9 5.19 26.18 5.03 26.18 4.72 26.18 4.41 25.96 4.24 25.41 4.09 24.83 3.93 24.36 3.69 24.36 3.12 24.36 2.52 24.81 2.17 25.48 2.17 26.23 2.18 26.63 2.6 26.7 3.19Z" fill="#808080"/><path d="M27.97 1.54C27.97 1.73 27.82 1.88 27.63 1.88 27.44 1.88 27.3 1.73 27.3 1.54 27.3 1.35 27.45 1.2 27.64 1.2 27.83 1.2 27.97 1.35 27.97 1.54ZM27.37 5.52 27.37 2.27 27.9 2.27 27.9 5.52 27.37 5.52Z" fill="#808080"/><path d="M31.67 4.72C31.67 4.92 31.67 5.17 31.66 5.35 31.63 6.3 31.06 6.8 30.12 6.8 29.19 6.8 28.73 6.41 28.67 5.73L28.66 5.67 29.19 5.67 29.2 5.73C29.24 6.13 29.56 6.4 30.12 6.4 30.76 6.4 31.11 6.03 31.14 5.41 31.15 5.26 31.15 5.15 31.15 5.05L31.15 5 30.9 5.34C30.71 5.5 30.37 5.6 30.04 5.6 29.09 5.6 28.56 4.89 28.56 3.94 28.56 2.74 29.31 2.18 30.15 2.18 30.42 2.18 30.76 2.26 30.93 2.39L31.14 2.71 31.14 2.27 31.67 2.27 31.67 4.72ZM31.14 3.92 31.14 3.74C31.14 2.9 30.61 2.58 30.15 2.58 29.58 2.58 29.14 3.02 29.14 3.87 29.14 4.61 29.47 5.19 30.12 5.19 30.66 5.2 31.14 4.85 31.14 3.92Z" fill="#808080"/><path d="M35.35 3.69 35.35 5.52 34.82 5.52 34.82 3.73C34.82 3.56 34.82 3.43 34.81 3.26 34.78 2.88 34.57 2.6 34.07 2.6 33.56 2.6 33.13 2.98 33.13 4.09L33.13 5.52 32.6 5.52 32.6 2.27 33.13 2.27 33.13 2.83 33.33 2.45C33.61 2.24 33.85 2.18 34.18 2.18 34.89 2.18 35.29 2.56 35.34 3.13 35.35 3.3 35.35 3.42 35.35 3.69Z" fill="#808080"/><path d="M38.2 4.57C38.2 4.68 38.2 4.74 38.21 4.82 38.23 5.13 38.36 5.2 38.77 5.15L38.77 5.54C38.62 5.56 38.47 5.57 38.32 5.57 37.92 5.57 37.71 5.4 37.68 5 37.67 4.91 37.67 4.78 37.67 4.6L37.67 2.7 37.23 2.7 37.23 2.29 37.67 2.29 37.67 1.54 38.2 1.54 38.2 2.29 38.81 2.29 38.81 2.7 38.2 2.7 38.2 4.57Z" fill="#808080"/><path d="M42.37 3.89C42.37 4.8 41.86 5.6 40.76 5.6 39.66 5.6 39.15 4.8 39.15 3.89 39.15 2.97 39.66 2.18 40.76 2.18 41.86 2.18 42.37 2.97 42.37 3.89ZM41.79 3.89C41.79 3.12 41.41 2.58 40.75 2.58 40.09 2.58 39.71 3.12 39.71 3.89 39.71 4.65 40.09 5.2 40.75 5.2 41.41 5.2 41.79 4.65 41.79 3.89Z" fill="#808080"/><path d="M48.71 5.52 48.18 5.52 48.18 3.34C48.18 2.81 48.18 2.22 48.19 1.76 48.05 2.22 47.85 2.81 47.67 3.33L46.92 5.51 46.26 5.51 45.5 3.31C45.33 2.81 45.13 2.22 45 1.76 45.01 2.22 45.01 2.8 45.01 3.32L45.01 5.5 44.48 5.5 44.48 1.28 45.35 1.28 46.6 5.06 47.85 1.28 48.7 1.28 48.7 5.52Z" fill="#808080"/><path d="M51.46 5.05 51.28 5.4C51.06 5.55 50.78 5.6 50.46 5.6 49.87 5.6 49.41 5.27 49.41 4.67 49.41 3.93 49.96 3.55 51.24 3.55L51.45 3.55 51.45 3.47C51.45 3.33 51.45 3.2 51.44 3.08 51.42 2.78 51.24 2.58 50.81 2.58 50.37 2.58 50.15 2.82 50.11 3.27L49.56 3.27C49.61 2.58 50.09 2.18 50.81 2.18 51.58 2.18 51.91 2.51 51.96 3.04 51.97 3.17 51.98 3.33 51.98 3.47L51.98 4.69C51.98 4.94 51.99 5.16 52.04 5.52L51.51 5.52 51.46 5.05ZM51.45 4.28 51.45 3.95C50.55 3.88 49.99 4.07 49.99 4.63 49.99 5.02 50.24 5.19 50.64 5.19 51.13 5.2 51.45 4.87 51.45 4.28Z" fill="#808080"/><path d="M55.65 3.69 55.65 5.52 55.12 5.52 55.12 3.73C55.12 3.56 55.12 3.43 55.11 3.26 55.08 2.88 54.87 2.6 54.37 2.6 53.86 2.6 53.43 2.98 53.43 4.09L53.43 5.52 52.9 5.52 52.9 2.27 53.43 2.27 53.43 2.83 53.63 2.45C53.91 2.24 54.15 2.18 54.48 2.18 55.19 2.18 55.59 2.56 55.64 3.13 55.65 3.3 55.65 3.42 55.65 3.69Z" fill="#808080"/><path d="M59.24 5.52 58.71 5.52 58.71 4.96 58.51 5.34C58.24 5.55 58 5.6 57.67 5.6 57 5.6 56.6 5.22 56.53 4.77 56.5 4.61 56.5 4.48 56.5 4.22L56.5 2.27 57.03 2.27 57.03 4.12C57.03 4.22 57.04 4.4 57.05 4.57 57.1 4.94 57.36 5.19 57.8 5.19 58.31 5.19 58.71 4.81 58.71 3.7L58.71 2.27 59.24 2.27 59.24 5.52Z" fill="#808080"/><path d="M60.73 1.97 60.73 2.29 61.4 2.29 61.4 2.7 60.73 2.7 60.73 5.52 60.2 5.52 60.2 2.7 59.85 2.7 59.85 2.29 60.2 2.29 60.2 2.02C60.2 1.9 60.21 1.74 60.22 1.63 60.27 1.16 60.59 0.89 61.08 0.89 61.21 0.89 61.34 0.9 61.45 0.92L61.45 1.36C61.05 1.29 60.79 1.38 60.74 1.64 60.73 1.73 60.73 1.88 60.73 1.97Z" fill="#808080"/><path d="M63.77 5.05 63.59 5.4C63.37 5.55 63.09 5.6 62.77 5.6 62.18 5.6 61.72 5.27 61.72 4.67 61.72 3.93 62.27 3.55 63.55 3.55L63.76 3.55 63.76 3.47C63.76 3.33 63.76 3.2 63.75 3.08 63.73 2.78 63.55 2.58 63.12 2.58 62.68 2.58 62.46 2.82 62.42 3.27L61.87 3.27C61.92 2.58 62.4 2.18 63.12 2.18 63.89 2.18 64.22 2.51 64.27 3.04 64.28 3.17 64.29 3.33 64.29 3.47L64.29 4.69C64.29 4.94 64.3 5.16 64.35 5.52L63.82 5.52 63.77 5.05ZM63.76 4.28 63.76 3.95C62.86 3.88 62.3 4.07 62.3 4.63 62.3 5.02 62.55 5.19 62.95 5.19 63.44 5.2 63.76 4.87 63.76 4.28Z" fill="#808080"/><path d="M67.85 3.36 67.3 3.36C67.18 2.84 66.9 2.59 66.47 2.59 65.96 2.59 65.53 2.99 65.53 3.87 65.53 4.81 65.95 5.21 66.43 5.21 66.86 5.21 67.16 4.96 67.27 4.49L67.82 4.49C67.66 5.24 67.12 5.61 66.4 5.61 65.58 5.61 64.95 5.09 64.95 3.9 64.95 2.8 65.66 2.18 66.48 2.18 67.25 2.18 67.75 2.65 67.85 3.36Z" fill="#808080"/><path d="M69.09 4.57C69.09 4.68 69.09 4.74 69.1 4.82 69.12 5.13 69.25 5.2 69.66 5.15L69.66 5.54C69.51 5.56 69.36 5.57 69.21 5.57 68.81 5.57 68.6 5.4 68.57 5 68.56 4.91 68.56 4.78 68.56 4.6L68.56 2.7 68.12 2.7 68.12 2.29 68.56 2.29 68.56 1.54 69.09 1.54 69.09 2.29 69.7 2.29 69.7 2.7 69.09 2.7 69.09 4.57Z" fill="#808080"/><path d="M73.08 5.52 72.55 5.52 72.55 4.96 72.35 5.34C72.07 5.54 71.83 5.6 71.5 5.6 70.83 5.6 70.43 5.22 70.36 4.77 70.34 4.6 70.33 4.48 70.33 4.21L70.33 2.27 70.86 2.27 70.86 4.12C70.86 4.22 70.87 4.4 70.88 4.57 70.93 4.94 71.19 5.19 71.63 5.19 72.14 5.19 72.54 4.81 72.54 3.7L72.54 2.27 73.07 2.27 73.07 5.52Z" fill="#808080"/><path d="M75.51 2.24 75.51 2.64C74.96 2.6 74.54 2.93 74.54 3.67L74.54 5.52 74.01 5.52 74.01 2.27 74.54 2.27 74.54 2.78 74.83 2.34C74.96 2.25 75.13 2.19 75.28 2.19 75.38 2.19 75.45 2.2 75.51 2.24Z" fill="#808080"/><path d="M76.64 1.54C76.64 1.73 76.49 1.88 76.3 1.88 76.11 1.88 75.96 1.73 75.96 1.54 75.96 1.35 76.11 1.2 76.3 1.2 76.49 1.2 76.64 1.35 76.64 1.54ZM76.04 5.52 76.04 2.27 76.57 2.27 76.57 5.52 76.04 5.52Z" fill="#808080"/><path d="M80.25 3.69 80.25 5.52 79.72 5.52 79.72 3.73C79.72 3.56 79.72 3.43 79.71 3.26 79.68 2.88 79.47 2.6 78.97 2.6 78.46 2.6 78.03 2.98 78.03 4.09L78.03 5.52 77.5 5.52 77.5 2.27 78.03 2.27 78.03 2.83 78.23 2.45C78.51 2.24 78.75 2.18 79.08 2.18 79.79 2.18 80.19 2.56 80.24 3.13 80.25 3.3 80.25 3.42 80.25 3.69Z" fill="#808080"/><path d="M83.98 4.72C83.98 4.92 83.98 5.17 83.97 5.35 83.94 6.3 83.37 6.8 82.43 6.8 81.5 6.8 81.04 6.41 80.98 5.73L80.97 5.67 81.5 5.67 81.51 5.73C81.55 6.13 81.87 6.4 82.43 6.4 83.07 6.4 83.42 6.03 83.45 5.41 83.46 5.26 83.46 5.15 83.46 5.05L83.46 5 83.21 5.35C83.02 5.5 82.68 5.6 82.35 5.6 81.4 5.6 80.87 4.89 80.87 3.94 80.87 2.74 81.62 2.18 82.46 2.18 82.73 2.18 83.07 2.26 83.24 2.39L83.45 2.71 83.45 2.27 83.98 2.27 83.98 4.72ZM83.45 3.92 83.45 3.74C83.45 2.9 82.92 2.58 82.46 2.58 81.89 2.58 81.45 3.02 81.45 3.87 81.45 4.61 81.78 5.19 82.43 5.19 82.97 5.2 83.45 4.85 83.45 3.92Z" fill="#808080"/><path d="M87.02 4.02 86.52 5.52 85.96 5.52 87.48 1.29 88.19 1.29 89.65 5.52 89.08 5.52 88.58 4.02 87.02 4.02ZM88.44 3.59 87.83 1.7 87.17 3.59 88.44 3.59Z" fill="#808080"/><path d="M93 4.72C93 4.92 93 5.17 92.99 5.35 92.96 6.3 92.39 6.8 91.45 6.8 90.52 6.8 90.06 6.41 90 5.73L89.99 5.67 90.52 5.67 90.53 5.73C90.57 6.13 90.89 6.4 91.45 6.4 92.09 6.4 92.44 6.03 92.47 5.41 92.48 5.26 92.48 5.15 92.48 5.05L92.48 5 92.23 5.35C92.04 5.5 91.7 5.6 91.37 5.6 90.42 5.6 89.89 4.89 89.89 3.94 89.89 2.74 90.64 2.18 91.48 2.18 91.75 2.18 92.09 2.26 92.26 2.39L92.47 2.71 92.47 2.27 93 2.27 93 4.72ZM92.47 3.92 92.47 3.74C92.47 2.9 91.94 2.58 91.48 2.58 90.91 2.58 90.47 3.02 90.47 3.87 90.47 4.61 90.8 5.19 91.45 5.19 91.99 5.2 92.47 4.85 92.47 3.92Z" fill="#808080"/><path d="M96.59 4.05 94.23 4.05C94.28 4.91 94.68 5.2 95.16 5.2 95.58 5.2 95.93 4.94 96 4.47L96.55 4.47C96.42 5.26 95.8 5.6 95.13 5.6 94.28 5.6 93.65 5.05 93.65 3.9 93.65 2.85 94.31 2.18 95.2 2.18 96.1 2.18 96.59 2.85 96.59 3.8 96.6 3.85 96.6 3.93 96.59 4.05ZM94.24 3.65 96.07 3.65C96.02 2.98 95.73 2.59 95.2 2.59 94.68 2.58 94.3 2.95 94.24 3.65Z" fill="#808080"/><path d="M100.05 3.69 100.05 5.52 99.52 5.52 99.52 3.73C99.52 3.56 99.52 3.43 99.51 3.26 99.48 2.88 99.27 2.6 98.77 2.6 98.26 2.6 97.83 2.98 97.83 4.09L97.83 5.52 97.3 5.52 97.3 2.27 97.83 2.27 97.83 2.83 98.03 2.45C98.31 2.24 98.55 2.18 98.88 2.18 99.59 2.18 99.99 2.56 100.04 3.13 100.05 3.3 100.05 3.42 100.05 3.69Z" fill="#808080"/><path d="M103.57 3.36 103.02 3.36C102.9 2.84 102.62 2.59 102.19 2.59 101.68 2.59 101.25 2.99 101.25 3.87 101.25 4.81 101.67 5.21 102.15 5.21 102.58 5.21 102.88 4.96 102.99 4.49L103.54 4.49C103.38 5.24 102.84 5.61 102.12 5.61 101.3 5.61 100.67 5.09 100.67 3.9 100.67 2.8 101.38 2.18 102.2 2.18 102.98 2.18 103.47 2.65 103.57 3.36Z" fill="#808080"/><path d="M105.5 5.79C105.24 6.48 104.89 6.8 104.36 6.8 104.24 6.8 104.17 6.8 104.09 6.79L104.09 6.36C104.17 6.37 104.22 6.37 104.28 6.37 104.61 6.37 104.82 6.23 104.99 5.8L105.03 5.68 103.74 2.26 104.34 2.26 105.31 5.12 106.27 2.26 106.85 2.26 105.5 5.79Z" fill="#808080"/></g></svg>