<svg width="510.62" height="155.95" viewBox="0 0 510.62 155.95" xmlns="http://www.w3.org/2000/svg" xmlns:xlink="http://www.w3.org/1999/xlink" overflow="hidden"><defs></defs><g><path d="M0 0.24 17.89 0.23 81.97 123.22 147.25 0.54 163.61 0.52 82 155.95Z" fill="#FFFFFF"/><path d="M147.33 155.95 146.19 57.19C146.19 57.19 144.07 4.29 204.47 0.07 204.47 0.07 239.39-0.07 255.66 29.66 255.66 29.66 269.15 1 306.71-1.42109e-14 306.71-1.42109e-14 358.27-1.39 365.06 57.35L365.13 155.8 350.63 155.81 350.56 57.05C350.56 57.05 349.45 16.57 306.71 14.4 306.71 14.4 264.58 13.62 262.93 57.11L263 155.86 248.39 155.87 248.32 57.11C248.32 57.11 247.04 14.91 204.47 14.46 204.47 14.46 164.16 13.07 160.79 57.17L160.86 155.93 147.33 155.95Z" fill="#FFFFFF"/><path d="M371.26 91.36 371.26 154.95 410.96 154.95 410.96 147.49 379.7 147.49 379.7 91.36Z" fill="#FFFFFF"/><rect x="414.42" y="108.85" width="7.82" height="46.09" fill="#FFFFFF"/><path d="M427.24 108.85 435.6 108.85 448.42 145.74 461.58 108.85 469.6 108.85 452.15 154.95 444.63 154.95Z" fill="#FFFFFF"/><circle cx="418.33" cy="95.74" r="7.14" fill="#FFFFFF"/><path d="M489.72 107.88C489.72 107.88 468.77 106.46 468.26 132.29 468.26 132.29 467.3 156.26 490.15 155.93 490.15 155.93 505.61 157.3 510.35 141.1L502.27 140.04C502.27 140.04 499.04 151.5 487.39 149.39 487.39 149.39 477.02 148.05 476.25 133.91L510.58 133.91C510.57 133.9 512.62 108.78 489.72 107.88ZM476.69 127.5C476.69 127.5 477.04 114.5 489.76 114.27 489.76 114.27 501.64 113.62 502.36 127.5L476.69 127.5Z" fill="#FFFFFF"/></g></svg>