<svg width="72.58" height="61.08" viewBox="0 0 72.58 61.08" xmlns="http://www.w3.org/2000/svg" xmlns:xlink="http://www.w3.org/1999/xlink" overflow="hidden"><defs></defs><g><path d="M70.43 25.06 47.53 2.16C44.66-0.71 39.96-0.71 37.09 2.16 34.22 5.03 34.22 9.73 37.09 12.6L47.29 22.8 33.3 22.8C29.47 22.8 26.33 25.94 26.33 29.77 26.33 33.6 29.47 36.74 33.3 36.74L48.55 36.74 36.82 48.48C33.95 51.35 33.95 56.05 36.82 58.92 39.69 61.79 44.39 61.79 47.26 58.92L70.16 36.02C70.78 35.4 71.25 34.7 71.61 33.95 73.22 31.13 72.84 27.46 70.43 25.06Z" fill="#F79A9A"/><path d="M17.3 22.8 6.97 22.8C3.14 22.8 0 25.94 0 29.77 0 33.6 3.14 36.74 6.97 36.74L17.3 36.74C21.13 36.74 24.27 33.6 24.27 29.77 24.27 25.94 21.13 22.8 17.3 22.8Z" fill="#F79A9A"/></g></svg>