<svg width="392.42" height="119.85" viewBox="0 0 392.42 119.85" xmlns="http://www.w3.org/2000/svg" xmlns:xlink="http://www.w3.org/1999/xlink" overflow="hidden"><defs></defs><path d="M0 0.18 13.75 0.17 63 94.69 113.16 0.41 125.74 0.4 63.02 119.85Z" fill="#F9F4F5"/><path d="M113.22 119.85 112.34 43.95C112.34 43.95 110.71 3.3 157.13 0.05 157.13 0.05 183.97-0.06 196.47 22.79 196.47 22.79 206.83 0.77 235.7-0.01 235.7-0.01 275.32-1.07 280.55 44.06L280.61 119.72 269.47 119.73 269.41 43.83C269.41 43.83 268.56 12.72 235.71 11.05 235.71 11.05 203.33 10.45 202.06 43.87L202.12 119.76 190.89 119.77 190.83 43.87C190.83 43.87 189.85 11.44 157.13 11.09 157.13 11.09 126.15 10.02 123.56 43.91L123.61 119.81 113.22 119.85Z" fill="#F9F4F5"/><path d="M285.32 70.21 285.32 119.08 315.83 119.08 315.83 113.35 291.81 113.35 291.81 70.21Z" fill="#F9F4F5"/><rect x="318.49" y="83.66" width="6.01" height="35.42" fill="#F9F4F5"/><path d="M328.34 83.66 334.77 83.66 344.62 112 354.73 83.66 360.9 83.66 347.49 119.08 341.71 119.08Z" fill="#F9F4F5"/><circle cx="321.5" cy="73.58" r="5.49" stroke="#000000" stroke-width="0.25" stroke-miterlimit="10" fill="#F9F4F5"/><path d="M376.36 82.91C376.36 82.91 360.26 81.82 359.87 101.67 359.87 101.67 359.13 120.09 376.69 119.84 376.69 119.84 388.57 120.89 392.22 108.44L386.01 107.62C386.01 107.62 383.53 116.42 374.57 114.8 374.57 114.8 366.6 113.77 366.01 102.91L392.39 102.91C392.38 102.9 393.96 83.6 376.36 82.91ZM366.35 97.99C366.35 97.99 366.62 88 376.39 87.82 376.39 87.82 385.52 87.32 386.07 97.99L366.35 97.99Z" fill="#F9F4F5"/></svg>